<mxfile host="app.diagrams.net" agent="Mozilla/5.0 (Macintosh; Intel Mac OS X 10_15_7) AppleWebKit/537.36 (KHTML, like Gecko) Chrome/127.0.0.0 Safari/537.36" version="24.7.6">
  <diagram id="C5RBs43oDa-KdzZeNtuy" name="Page-1">
    <mxGraphModel dx="821" dy="761" grid="1" gridSize="10" guides="1" tooltips="1" connect="1" arrows="1" fold="1" page="1" pageScale="1" pageWidth="827" pageHeight="1169" math="0" shadow="0">
      <root>
        <mxCell id="WIyWlLk6GJQsqaUBKTNV-0" />
        <mxCell id="WIyWlLk6GJQsqaUBKTNV-1" parent="WIyWlLk6GJQsqaUBKTNV-0" />
        <mxCell id="B1PGznZaetz0eu_-b9yt-2" value="" style="edgeStyle=orthogonalEdgeStyle;rounded=0;orthogonalLoop=1;jettySize=auto;html=1;" edge="1" parent="WIyWlLk6GJQsqaUBKTNV-1" source="B1PGznZaetz0eu_-b9yt-0" target="B1PGznZaetz0eu_-b9yt-1">
          <mxGeometry relative="1" as="geometry" />
        </mxCell>
        <mxCell id="B1PGznZaetz0eu_-b9yt-0" value="시작" style="ellipse;whiteSpace=wrap;html=1;" vertex="1" parent="WIyWlLk6GJQsqaUBKTNV-1">
          <mxGeometry x="160" y="60" width="80" height="40" as="geometry" />
        </mxCell>
        <mxCell id="B1PGznZaetz0eu_-b9yt-7" value="" style="edgeStyle=orthogonalEdgeStyle;rounded=0;orthogonalLoop=1;jettySize=auto;html=1;" edge="1" parent="WIyWlLk6GJQsqaUBKTNV-1" source="B1PGznZaetz0eu_-b9yt-1" target="B1PGznZaetz0eu_-b9yt-6">
          <mxGeometry relative="1" as="geometry" />
        </mxCell>
        <mxCell id="B1PGznZaetz0eu_-b9yt-1" value="길이, 몸통, 토핑, 막대길이" style="shape=parallelogram;perimeter=parallelogramPerimeter;whiteSpace=wrap;html=1;fixedSize=1;" vertex="1" parent="WIyWlLk6GJQsqaUBKTNV-1">
          <mxGeometry x="110" y="120" width="180" height="40" as="geometry" />
        </mxCell>
        <mxCell id="B1PGznZaetz0eu_-b9yt-9" value="" style="edgeStyle=orthogonalEdgeStyle;rounded=0;orthogonalLoop=1;jettySize=auto;html=1;" edge="1" parent="WIyWlLk6GJQsqaUBKTNV-1" source="B1PGznZaetz0eu_-b9yt-6" target="B1PGznZaetz0eu_-b9yt-8">
          <mxGeometry relative="1" as="geometry" />
        </mxCell>
        <mxCell id="B1PGznZaetz0eu_-b9yt-6" value="빼빼로 정보 출력" style="whiteSpace=wrap;html=1;" vertex="1" parent="WIyWlLk6GJQsqaUBKTNV-1">
          <mxGeometry x="140" y="220" width="120" height="40" as="geometry" />
        </mxCell>
        <mxCell id="B1PGznZaetz0eu_-b9yt-11" value="" style="edgeStyle=orthogonalEdgeStyle;rounded=0;orthogonalLoop=1;jettySize=auto;html=1;" edge="1" parent="WIyWlLk6GJQsqaUBKTNV-1" source="B1PGznZaetz0eu_-b9yt-8" target="B1PGznZaetz0eu_-b9yt-10">
          <mxGeometry relative="1" as="geometry" />
        </mxCell>
        <mxCell id="B1PGznZaetz0eu_-b9yt-8" value="몸통, 토핑 정보를 사용하여&lt;br&gt;빼빼로 몸통 부분을 만들어 변수에 할당" style="whiteSpace=wrap;html=1;" vertex="1" parent="WIyWlLk6GJQsqaUBKTNV-1">
          <mxGeometry x="100" y="280" width="200" height="50" as="geometry" />
        </mxCell>
        <mxCell id="B1PGznZaetz0eu_-b9yt-15" value="" style="edgeStyle=orthogonalEdgeStyle;rounded=0;orthogonalLoop=1;jettySize=auto;html=1;" edge="1" parent="WIyWlLk6GJQsqaUBKTNV-1" source="B1PGznZaetz0eu_-b9yt-10" target="B1PGznZaetz0eu_-b9yt-14">
          <mxGeometry relative="1" as="geometry" />
        </mxCell>
        <mxCell id="B1PGznZaetz0eu_-b9yt-10" value="빼빼로 몸통 출력" style="whiteSpace=wrap;html=1;" vertex="1" parent="WIyWlLk6GJQsqaUBKTNV-1">
          <mxGeometry x="100" y="410" width="200" height="40" as="geometry" />
        </mxCell>
        <mxCell id="B1PGznZaetz0eu_-b9yt-26" style="edgeStyle=orthogonalEdgeStyle;rounded=0;orthogonalLoop=1;jettySize=auto;html=1;exitX=0.5;exitY=1;exitDx=0;exitDy=0;entryX=0.5;entryY=0;entryDx=0;entryDy=0;" edge="1" parent="WIyWlLk6GJQsqaUBKTNV-1" source="B1PGznZaetz0eu_-b9yt-12" target="B1PGznZaetz0eu_-b9yt-25">
          <mxGeometry relative="1" as="geometry" />
        </mxCell>
        <mxCell id="B1PGznZaetz0eu_-b9yt-12" value="막대 출력" style="whiteSpace=wrap;html=1;" vertex="1" parent="WIyWlLk6GJQsqaUBKTNV-1">
          <mxGeometry x="115" y="630" width="170" height="40" as="geometry" />
        </mxCell>
        <mxCell id="B1PGznZaetz0eu_-b9yt-16" style="edgeStyle=orthogonalEdgeStyle;rounded=0;orthogonalLoop=1;jettySize=auto;html=1;exitX=1;exitY=0.5;exitDx=0;exitDy=0;" edge="1" parent="WIyWlLk6GJQsqaUBKTNV-1" source="B1PGznZaetz0eu_-b9yt-14">
          <mxGeometry relative="1" as="geometry">
            <mxPoint x="200" y="380" as="targetPoint" />
            <Array as="points">
              <mxPoint x="340" y="510" />
              <mxPoint x="340" y="380" />
              <mxPoint x="200" y="380" />
            </Array>
          </mxGeometry>
        </mxCell>
        <mxCell id="B1PGznZaetz0eu_-b9yt-17" value="No" style="edgeLabel;html=1;align=center;verticalAlign=middle;resizable=0;points=[];" vertex="1" connectable="0" parent="B1PGznZaetz0eu_-b9yt-16">
          <mxGeometry x="-0.7162" y="-2" relative="1" as="geometry">
            <mxPoint x="-12" y="11" as="offset" />
          </mxGeometry>
        </mxCell>
        <mxCell id="B1PGznZaetz0eu_-b9yt-18" style="edgeStyle=orthogonalEdgeStyle;rounded=0;orthogonalLoop=1;jettySize=auto;html=1;exitX=0.5;exitY=1;exitDx=0;exitDy=0;entryX=0.5;entryY=0;entryDx=0;entryDy=0;" edge="1" parent="WIyWlLk6GJQsqaUBKTNV-1" source="B1PGznZaetz0eu_-b9yt-14" target="B1PGznZaetz0eu_-b9yt-12">
          <mxGeometry relative="1" as="geometry" />
        </mxCell>
        <mxCell id="B1PGznZaetz0eu_-b9yt-19" value="Yes" style="edgeLabel;html=1;align=center;verticalAlign=middle;resizable=0;points=[];" vertex="1" connectable="0" parent="B1PGznZaetz0eu_-b9yt-18">
          <mxGeometry x="-0.4103" y="2" relative="1" as="geometry">
            <mxPoint x="11" y="-15" as="offset" />
          </mxGeometry>
        </mxCell>
        <mxCell id="B1PGznZaetz0eu_-b9yt-14" value="몸통 길이 만큼 몸통을 출력 하였는가?" style="rhombus;whiteSpace=wrap;html=1;" vertex="1" parent="WIyWlLk6GJQsqaUBKTNV-1">
          <mxGeometry x="80" y="470" width="240" height="80" as="geometry" />
        </mxCell>
        <mxCell id="B1PGznZaetz0eu_-b9yt-21" style="edgeStyle=orthogonalEdgeStyle;rounded=0;orthogonalLoop=1;jettySize=auto;html=1;exitX=1;exitY=0.5;exitDx=0;exitDy=0;" edge="1" parent="WIyWlLk6GJQsqaUBKTNV-1" source="B1PGznZaetz0eu_-b9yt-25">
          <mxGeometry relative="1" as="geometry">
            <mxPoint x="200" y="600" as="targetPoint" />
            <Array as="points">
              <mxPoint x="340" y="730" />
              <mxPoint x="340" y="600" />
              <mxPoint x="200" y="600" />
            </Array>
          </mxGeometry>
        </mxCell>
        <mxCell id="B1PGznZaetz0eu_-b9yt-22" value="No" style="edgeLabel;html=1;align=center;verticalAlign=middle;resizable=0;points=[];" vertex="1" connectable="0" parent="B1PGznZaetz0eu_-b9yt-21">
          <mxGeometry x="-0.7162" y="-2" relative="1" as="geometry">
            <mxPoint x="-12" y="11" as="offset" />
          </mxGeometry>
        </mxCell>
        <mxCell id="B1PGznZaetz0eu_-b9yt-23" style="edgeStyle=orthogonalEdgeStyle;rounded=0;orthogonalLoop=1;jettySize=auto;html=1;exitX=0.5;exitY=1;exitDx=0;exitDy=0;entryX=0.5;entryY=0;entryDx=0;entryDy=0;" edge="1" parent="WIyWlLk6GJQsqaUBKTNV-1" source="B1PGznZaetz0eu_-b9yt-25" target="B1PGznZaetz0eu_-b9yt-27">
          <mxGeometry relative="1" as="geometry">
            <mxPoint x="200" y="790" as="targetPoint" />
          </mxGeometry>
        </mxCell>
        <mxCell id="B1PGznZaetz0eu_-b9yt-24" value="Yes" style="edgeLabel;html=1;align=center;verticalAlign=middle;resizable=0;points=[];" vertex="1" connectable="0" parent="B1PGznZaetz0eu_-b9yt-23">
          <mxGeometry x="-0.4103" y="2" relative="1" as="geometry">
            <mxPoint x="11" as="offset" />
          </mxGeometry>
        </mxCell>
        <mxCell id="B1PGznZaetz0eu_-b9yt-25" value="막대 길이 만큼 막대를 출력 하였는가?" style="rhombus;whiteSpace=wrap;html=1;" vertex="1" parent="WIyWlLk6GJQsqaUBKTNV-1">
          <mxGeometry x="80" y="690" width="240" height="80" as="geometry" />
        </mxCell>
        <mxCell id="B1PGznZaetz0eu_-b9yt-27" value="끝" style="ellipse;whiteSpace=wrap;html=1;" vertex="1" parent="WIyWlLk6GJQsqaUBKTNV-1">
          <mxGeometry x="160" y="810" width="80" height="40" as="geometry" />
        </mxCell>
      </root>
    </mxGraphModel>
  </diagram>
</mxfile>
